<svg width="56" height="38" viewBox="0 0 56 38" fill="none" xmlns="http://www.w3.org/2000/svg">
<rect width="56" height="38" rx="19" fill="white" fill-opacity="0.5"/>
<path fill-rule="evenodd" clip-rule="evenodd" d="M40 13C40 13.5523 39.6083 14 39.1251 14L16.8749 14C16.3917 14 16 13.5523 16 13C16 12.4477 16.3917 12 16.8749 12L39.1251 12C39.6083 12 40 12.4477 40 13Z" fill="#0077B8"/>
<path fill-rule="evenodd" clip-rule="evenodd" d="M40 19C40 19.5523 39.6083 20 39.1251 20L16.8749 20C16.3917 20 16 19.5523 16 19C16 18.4477 16.3917 18 16.8749 18L39.1251 18C39.6083 18 40 18.4477 40 19Z" fill="#0077B8"/>
<path fill-rule="evenodd" clip-rule="evenodd" d="M40 25C40 25.5523 39.6083 26 39.1251 26L16.8749 26C16.3917 26 16 25.5523 16 25C16 24.4477 16.3917 24 16.8749 24L39.1251 24C39.6083 24 40 24.4477 40 25Z" fill="#0077B8"/>
</svg>
