<svg width="96" height="45" viewBox="0 0 96 45" fill="none" xmlns="http://www.w3.org/2000/svg">
<path d="M66.2344 3.72706C67.5917 3.72706 68.6804 4.17883 69.5004 5.08236C70.3205 5.97177 70.7305 7.2 70.7305 8.76706V15.6706H67.1252V9.25412C67.1252 8.46353 66.9202 7.84942 66.5101 7.41177C66.1001 6.97412 65.5487 6.7553 64.8559 6.7553C64.1631 6.7553 63.6117 6.97412 63.2017 7.41177C62.7917 7.84942 62.5867 8.46353 62.5867 9.25412V15.6706H58.9602V0H62.5867V5.44235C62.9543 4.92 63.4562 4.50353 64.0924 4.19294C64.7287 3.88235 65.4427 3.72706 66.2344 3.72706Z" fill="#0077B8"/>
<path d="M56.9401 12.6V15.6706H55.095C53.7801 15.6706 52.7551 15.353 52.0199 14.7177C51.2847 14.0683 50.9171 13.0165 50.9171 11.5624V6.86121H49.475V3.85415H50.9171V0.974148H54.5436V3.85415H56.9189V6.86121H54.5436V11.6047C54.5436 11.9577 54.6285 12.2118 54.7981 12.3671C54.9678 12.5224 55.2506 12.6 55.6464 12.6H56.9401Z" fill="#0077B8"/>
<path d="M47.7164 0V15.6706H44.0898V0H47.7164Z" fill="#0077B8"/>
<path d="M28.9748 9.74118C28.9748 8.52706 29.201 7.46118 29.6534 6.54353C30.12 5.62588 30.7492 4.92 31.5409 4.42588C32.3327 3.93176 33.2164 3.6847 34.1919 3.6847C35.0261 3.6847 35.7542 3.85411 36.3763 4.19294C37.0126 4.53176 37.5003 4.97647 37.8397 5.52706V3.85412H41.4662V15.6706H37.8397V13.9976C37.4862 14.5482 36.9913 14.9929 36.3551 15.3318C35.733 15.6706 35.0049 15.84 34.1707 15.84C33.2093 15.84 32.3327 15.5929 31.5409 15.0988C30.7492 14.5906 30.12 13.8776 29.6534 12.96C29.201 12.0282 28.9748 10.9553 28.9748 9.74118ZM37.8397 9.76235C37.8397 8.85882 37.5852 8.14588 37.0762 7.62353C36.5813 7.10118 35.9734 6.84 35.2523 6.84C34.5312 6.84 33.9162 7.10118 33.4072 7.62353C32.9124 8.13176 32.665 8.83765 32.665 9.74118C32.665 10.6447 32.9124 11.3647 33.4072 11.9012C33.9162 12.4235 34.5312 12.6847 35.2523 12.6847C35.9734 12.6847 36.5813 12.4235 37.0762 11.9012C37.5852 11.3788 37.8397 10.6659 37.8397 9.76235Z" fill="#0077B8"/>
<path d="M27.7827 9.57176C27.7827 9.91059 27.7615 10.2635 27.7191 10.6306H19.5116C19.5682 11.3647 19.8015 11.9294 20.2115 12.3247C20.6357 12.7059 21.1517 12.8965 21.7597 12.8965C22.6645 12.8965 23.2937 12.5153 23.6472 11.7529H27.507C27.309 12.5294 26.9485 13.2282 26.4254 13.8494C25.9164 14.4706 25.2731 14.9577 24.4955 15.3106C23.7179 15.6635 22.8483 15.84 21.8869 15.84C20.7276 15.84 19.6954 15.5929 18.7906 15.0988C17.8857 14.6047 17.1788 13.8988 16.6698 12.9812C16.1608 12.0635 15.9063 10.9906 15.9063 9.76235C15.9063 8.53412 16.1537 7.46118 16.6486 6.54353C17.1576 5.62588 17.8645 4.92 18.7694 4.42588C19.6742 3.93176 20.7134 3.6847 21.8869 3.6847C23.0321 3.6847 24.0501 3.9247 24.9408 4.4047C25.8316 4.8847 26.5244 5.56941 27.0192 6.45882C27.5282 7.34823 27.7827 8.38588 27.7827 9.57176ZM24.0713 8.61882C24.0713 7.99765 23.8592 7.50353 23.4351 7.13647C23.0109 6.76941 22.4807 6.58588 21.8445 6.58588C21.2365 6.58588 20.7205 6.76235 20.2963 7.11529C19.8863 7.46823 19.6318 7.96941 19.5328 8.61882H24.0713Z" fill="#0077B8"/>
<path d="M14.0094 0.804749V15.6706H10.3828V9.55063H4.74157V15.6706H1.11503V0.804749H4.74157V6.62828H10.3828V0.804749H14.0094Z" fill="#0077B8"/>
<path fill-rule="evenodd" clip-rule="evenodd" d="M13.1113 41.5291L15.6968 45H21.6433L17.2193 39.6933C18.4642 38.7562 19.4313 37.5802 20.1208 36.165C20.8294 34.7308 21.1837 33.1531 21.1837 31.432C21.1837 29.4623 20.7241 27.6934 19.8048 26.1253C18.9047 24.5572 17.6598 23.3333 16.0702 22.4537C14.4998 21.574 12.7666 21.1341 10.8706 21.1341C8.97457 21.1341 7.23178 21.574 5.6422 22.4537C4.07177 23.3333 2.81734 24.5572 1.87891 26.1253C0.959638 27.6934 0.5 29.4623 0.5 31.432C0.5 33.4017 0.959638 35.1802 1.87891 36.7674C2.81734 38.3355 4.07177 39.5594 5.6422 40.4391C7.23178 41.3188 8.97457 41.7586 10.8706 41.7586C11.5983 41.7586 12.3452 41.6821 13.1113 41.5291ZM6.96365 35.7061C6.00608 34.6352 5.52729 33.2105 5.52729 31.432C5.52729 29.6344 6.00608 28.2098 6.96365 27.158C7.94038 26.1062 9.24269 25.5803 10.8706 25.5803C12.4793 25.5803 13.7625 26.1158 14.72 27.1867C15.6968 28.2384 16.1851 29.6536 16.1851 31.432C16.1851 33.1914 15.6968 34.6065 14.72 35.6774C13.7625 36.7483 12.4793 37.2838 10.8706 37.2838C9.24269 37.2838 7.94038 36.7579 6.96365 35.7061ZM58.3544 34.7308C58.4119 34.2336 58.4406 33.7555 58.4406 33.2966C58.4406 31.6902 58.0959 30.2846 57.4064 29.0799C56.7361 27.8751 55.7977 26.9476 54.5911 26.2974C53.3846 25.6472 52.0057 25.3221 50.4544 25.3221C48.8648 25.3221 47.4572 25.6568 46.2315 26.3261C45.0058 26.9954 44.0482 27.9516 43.3587 29.1946C42.6884 30.4376 42.3533 31.891 42.3533 33.5547C42.3533 35.2184 42.698 36.6718 43.3875 37.9148C44.0769 39.1578 45.0345 40.114 46.2602 40.7833C47.4859 41.4526 48.884 41.7873 50.4544 41.7873C51.7567 41.7873 52.9345 41.5482 53.9879 41.0702C55.0412 40.5921 55.9126 39.9323 56.602 39.0909C57.3107 38.2495 57.799 37.3029 58.0671 36.2511H52.8388C52.36 37.2838 51.5077 37.8001 50.282 37.8001C49.4585 37.8001 48.7595 37.5419 48.1849 37.0256C47.6295 36.4901 47.3135 35.7252 47.2369 34.7308H58.3544ZM52.5515 29.9978C53.126 30.495 53.4133 31.1643 53.4133 32.0057H47.2657C47.3997 31.1261 47.7444 30.4472 48.2998 29.9691C48.8744 29.491 49.5734 29.252 50.3969 29.252C51.2588 29.252 51.9769 29.5006 52.5515 29.9978ZM95.5 33.2966C95.5 33.7555 95.4713 34.2336 95.4138 34.7308H84.2963C84.3729 35.7252 84.6889 36.4901 85.2443 37.0256C85.8189 37.5419 86.5179 37.8001 87.3414 37.8001C88.5671 37.8001 89.4194 37.2838 89.8982 36.2511H95.1265C94.8584 37.3029 94.3701 38.2495 93.6614 39.0909C92.972 39.9323 92.1006 40.5921 91.0473 41.0702C89.9939 41.5482 88.8161 41.7873 87.5138 41.7873C85.9434 41.7873 84.5453 41.4526 83.3196 40.7833C82.0939 40.114 81.1363 39.1578 80.4469 37.9148C79.7574 36.6718 79.4127 35.2184 79.4127 33.5547C79.4127 31.891 79.7478 30.4376 80.4181 29.1946C81.1076 27.9516 82.0652 26.9954 83.2909 26.3261C84.5166 25.6568 85.9242 25.3221 87.5138 25.3221C89.0651 25.3221 90.444 25.6472 91.6505 26.2974C92.8571 26.9476 93.7955 27.8751 94.4658 29.0799C95.1553 30.2846 95.5 31.6902 95.5 33.2966ZM90.4727 32.0057C90.4727 31.1643 90.1854 30.495 89.6109 29.9978C89.0363 29.5006 88.3182 29.252 87.4563 29.252C86.6328 29.252 85.9338 29.491 85.3592 29.9691C84.8038 30.4472 84.4591 31.1261 84.3251 32.0057H90.4727ZM76.8609 25.5517V41.5579H71.9485V39.3778C71.4506 40.0854 70.7707 40.6591 69.9089 41.0989C69.0662 41.5196 68.1278 41.73 67.0936 41.73C65.8679 41.73 64.7858 41.4623 63.8474 40.9268C62.909 40.3723 62.1812 39.5786 61.6641 38.546C61.147 37.5133 60.8885 36.299 60.8885 34.903V25.5517H65.7721V34.2432C65.7721 35.3142 66.0498 36.146 66.6052 36.7388C67.1606 37.3317 67.9075 37.6281 68.846 37.6281C69.8035 37.6281 70.56 37.3317 71.1154 36.7388C71.6708 36.146 71.9485 35.3142 71.9485 34.2432V25.5517H76.8609ZM39.8015 25.5517V41.5579H34.8891V39.3778C34.3912 40.0854 33.7113 40.6591 32.8495 41.0989C32.0068 41.5196 31.0684 41.73 30.0342 41.73C28.8085 41.73 27.7264 41.4623 26.788 40.9268C25.8496 40.3723 25.1218 39.5786 24.6047 38.546C24.0876 37.5133 23.8291 36.299 23.8291 34.903V25.5517H28.7127V34.2432C28.7127 35.3142 28.9904 36.146 29.5458 36.7388C30.1012 37.3317 30.8481 37.6281 31.7866 37.6281C32.7441 37.6281 33.5006 37.3317 34.056 36.7388C34.6114 36.146 34.8891 35.3142 34.8891 34.2432V25.5517H39.8015Z" fill="#0077B8"/>
</svg>
